<svg version="1.2" xmlns="http://www.w3.org/2000/svg" viewBox="0 0 53 60" width="53" height="60"><style>.a{fill:#f2cd5d}.b{fill:#eb7f4e}</style><path class="a" d="m0.1 37.2c0.4 5.5 2.3 11 5.9 15.2 3.5 4.2 8.9 7 14.5 6.8 5.5-0.1 11-3.5 13.1-8.6 2.4-5.8 0.4-12.5 2.2-18.5 1.4-4.6 4.9-8.3 8.8-11.2 1.8-1.4 3.6-2.6 5.2-4.1 1.6-1.6 2.9-3.5 3.1-5.7 0.2-2.4-0.9-4.9-2.6-6.6-3.6-3.6-9.9-5.3-14.8-4-9.7 2.5-19.2 4.6-26.4 12.1-6.3 6.5-9.6 15.5-9 24.6z"/><path class="b" d="m50.8 102.8c-1.1-5.3-1.7-11.3-2.3-17.8-0.6-6.6-1.3-13.7-2.9-21.1-1.5-7.3-3.9-15.1-8.4-22.2-2.3-3.5-5-6.8-8.4-9.5-3.3-2.8-7-5-10.9-6.6-10.6-4.5-21.6-5.6-31.8-7.9-10.2-2.4-20-6.1-29-11.4-18-10.5-33.1-26.3-42.4-45-4.2-8.4-7.2-17.2-8.9-26.4-1.8-9.1-2.3-18.4-1.6-27.7q0.1-2.3 0.5-4.5 0.4-2.3 0.8-4.5c4.2-21.8 14.9-42.2 30.2-58.2 0.8-0.9 1.7-1.8 2.6-2.7q1.2-1.3 2.5-2.6c1.1-1.2 0.6-2.2-0.8-1.4-1.5 0.9-3.1 1.8-4.6 3-1.6 1.3-3.1 2.8-4.6 4.2-1.5 1.4-2.9 3-4.3 4.5-19.3 22.6-29.1 53.6-25 83 0.1 1 0.4 2 0.4 3 0.7 6.8 2.1 13.6 4.5 20.1 1 3.3 2.5 6.4 3.9 9.6 0.7 1.5 1.6 3 2.4 4.5l1.2 2.3 1.3 2.2c1 1.5 1.8 3 2.8 4.4l3 4.2c0.9 1.5 2 2.8 3.1 4.1 1.1 1.4 2.1 2.8 3.2 4.1 2.4 2.5 4.6 5.1 7 7.5 2.4 2.5 5 4.8 7.5 7.2 11.7 8.9 24.4 16.2 38.6 20.5 3.9 1.4 8.1 1.8 12.2 2.6 5.3 0.9 10.6 1.7 15.8 3 5.1 1.3 10.1 3.3 14.3 6.5 0.9 0.7 1.9 1.5 2.8 2.3 1 0.8 2 1.5 2.9 2.4 3.7 3.2 6.5 7.5 8.4 12.1 2 4.7 3.1 9.6 4 14.6 1.3 7.5 1.9 15.1 2.5 22.8 0.7 7.7 1.6 15.6 3.7 23.3 0.9 3.5 2.2 7.1 3.7 10.4q2.3 5.1 5.4 9.9c2.2 3.4 5.9 6.6 9.7 9 8.5 5.4 18.7 7.4 28.5 7 1 0 2.1 0 3.2-0.1 5.3-0.7 10.5-2.1 15.4-3.9 4.8-1.9 9.5-4.3 13.9-6.9 8.8-5.3 16.7-11.7 24.5-18.1 0.8-0.7 1.4-1.9 1.7-2.6 0.1-0.4-0.6-0.4-1.2-0.1-2.6 1.4-5.5 2.6-8.1 4.5-7.2 5.2-14.7 10.2-22.6 14.1-7.9 3.9-16.3 6.6-25 7.2-4.9 0.3-9.9 0.1-14.8-1-2.4-0.5-4.8-1.4-7.2-2.3-2.3-1.1-4.6-2.3-6.7-3.9-2.2-1.6-4.2-3.4-6-5.6-1.8-2.1-3.4-4.5-4.8-7.2-2.8-5.4-4.6-11.8-5.8-18.9z"/></svg>