<svg version="1.2" xmlns="http://www.w3.org/2000/svg" viewBox="0 0 289 283" width="289" height="283"><style>.a{fill:#62b2ac}</style><path class="a" d="m38.8 103.4c5.1 1.8 10.9 3.4 17.2 5 6.4 1.6 13.4 3.4 20.4 6.1 7 2.7 14.4 6.2 20.6 11.8 3.2 2.8 6 6 8.2 9.8 2.2 3.6 3.8 7.7 4.8 11.8 2.8 11.1 2.2 22.1 2.9 32.6 0.7 10.4 2.8 20.6 6.7 30.4 7.5 19.4 20.8 36.7 37.9 48.9 7.5 5.4 15.8 9.7 24.6 12.9 8.7 3.1 17.9 5 27.2 5.9q2.3 0.1 4.5 0.2 2.3-0.1 4.6-0.2c22.2-0.7 44-8.1 62.2-20.7 1.1-0.7 2.1-1.4 3.1-2.1q1.5-1.1 3-2.1c1.4-0.9 2.3-0.2 1.2 1-1.1 1.3-2.3 2.8-3.7 4.1-1.5 1.4-3.2 2.6-4.8 3.9-1.6 1.3-3.4 2.4-5.2 3.5-25.3 15.6-57.5 20.4-85.9 11.8-1-0.3-2-0.7-2.9-1-6.6-1.7-13.1-4.1-19.2-7.5-3.1-1.5-5.9-3.5-8.8-5.3-1.4-1-2.8-2.1-4.2-3.1l-2.1-1.5-1.9-1.7c-1.3-1.2-2.7-2.3-3.9-3.4l-3.7-3.6c-1.3-1.2-2.5-2.5-3.6-3.7-1.2-1.3-2.4-2.5-3.5-3.9-2.1-2.7-4.4-5.2-6.3-8.1-2.2-2.7-4-5.6-6-8.4-6.9-12.9-12.2-26.7-14.3-41.3-0.7-4.1-0.5-8.4-0.6-12.5 0-5.4 0-10.7-0.5-16-0.5-5.3-1.7-10.5-4.2-15.1-0.6-1-1.2-2.1-1.8-3.2-0.7-1.1-1.2-2.2-1.9-3.2-2.7-4.2-6.5-7.6-10.7-10.2-4.3-2.7-9-4.6-13.8-6.2-7.2-2.5-14.6-4.2-22.2-6.1-7.5-1.9-15.1-4-22.4-7.2-3.4-1.5-6.6-3.3-9.8-5.3q-4.6-3.1-8.9-6.9c-3-2.7-5.5-6.9-7.3-10.9-4.1-9.3-4.4-19.7-2.5-29.2 0.2-1.1 0.4-2.2 0.6-3.2 1.5-5.1 3.7-10 6.3-14.6 2.6-4.5 5.7-8.7 9-12.6 6.6-7.9 14.2-14.7 21.7-21.4 0.8-0.7 2.1-1.1 2.8-1.3 0.4-0.1 0.4 0.7 0 1.2-1.8 2.4-3.5 5-5.8 7.3-6.3 6.3-12.4 12.9-17.4 20.1-5.2 7.2-9.2 15.1-11.1 23.5-1.1 4.9-1.6 9.8-1.3 14.8 0.1 2.5 0.6 5 1.2 7.5 0.7 2.4 1.5 4.9 2.7 7.3 1.2 2.3 2.7 4.6 4.6 6.7 1.8 2.1 4 4 6.4 5.8 4.9 3.6 10.9 6.5 17.8 8.8z"/></svg>