<svg version="1.2" xmlns="http://www.w3.org/2000/svg" viewBox="0 0 272 256" width="272" height="256"><style>.a{fill:#e5f3ff}</style><path class="a" d="m133.7 174.9q-0.5-1-1-2-1.5-2-3.7-3-1.6-0.8-3.4-0.7-1.7-0.2-3.4 0.5-1.7 0.6-2.9 1.9-1.4 1.1-2.1 2.9-0.9 2.1-0.7 4.5 0.1 0.6 0.3 1.2 0.1 0.9 0.3 1.7 0.2 1.1 0.8 2 0.7 1.6 2.1 2.7 0.1 0 0.1 0 0.1 0.1 0.2 0.2 0.9 0.6 1.8 1.1 1.5 0.7 3.1 0.6 1.1 0.2 2.1-0.2 1.6-0.2 2.9-1.2 0.1-0.1 0.1-0.1c0.6-0.5 1.4-1.1 1.7-1.6l0.1-0.1q0.6-1 1.2-1.9c0.4-0.9 0.5-1.8 0.7-2.8q0.1-0.6 0.2-1.2 0.4-2.3-0.5-4.5zm-28.2-91c-2.3 0-3.9 0.9-4.9 2.3-0.5-0.8-1.1-1.5-1.8-2q-1-0.7-2-1.3-2.1-0.9-4.4-0.6-1.7 0.1-3.2 1-1.6 0.7-2.7 2.1-1.1 1.4-1.5 3.1-0.6 1.6-0.4 3.3l0.6 2.2q0.8 2.2 2.6 3.7 1 0.6 2 1.2 2.1 0.9 4.4 0.7 1.8-0.1 3.2-1.1 1.6-0.7 2.7-2.1 0.6-0.7 1-1.5c1.3 1.7 3.2 3.1 5.9 3.1 9.1 0 7.6-14.1-1.5-14.1zm56.6-13.7c-10.2 0-8.5 15.6 1.6 15.6 10.2 0 8.4-15.6-1.6-15.6zm32.3 85.3c-10.4 0-8.6 16 1.7 16 10.4 0 8.6-16-1.7-16zm69.6-20.3c-9.5 0-7.9 14.7 1.6 14.7 9.6 0 7.9-14.7-1.6-14.7zm-35.6-77.7c-9.8 0-8.1 15.2 1.6 15.2 9.8 0 8.2-15.2-1.6-15.2zm-56.4 64.9c-7.3 0-6.1 11.3 1.2 11.3 7.3 0 6.1-11.3-1.2-11.3zm-47.1-122.4c-9.1 0-7.5 14.1 1.5 14.1 9.2 0 7.6-14.1-1.5-14.1zm-100 55.3c-6.5 0-5.4 9.9 1 9.9 6.5 0 5.3-9.9-1-9.9zm28.5 97.5q-0.5-0.8-0.9-1.7-1.2-1.6-3.1-2.5-0.9-0.2-1.9-0.5-1.9-0.3-3.7 0.4-3.3 1.6-6.5 3.2-1.4 0.5-2.4 1.6-1.2 1-1.8 2.4-0.6 1.3-0.5 2.8-0.2 1.4 0.4 2.8 0.4 0.8 0.9 1.7 1.2 1.6 3.1 2.5 0.9 0.2 1.8 0.5 1.9 0.3 3.8-0.4l6.4-3.2q1.5-0.5 2.5-1.6 1.2-0.9 1.7-2.4 0.7-1.3 0.6-2.8 0.1-1.4-0.4-2.8zm65.1-16.7c-8.4 0-7 12.9 1.4 12.9 8.4 0 7-12.9-1.4-12.9zm26-82.9c-7.1 0-5.9 10.9 1.2 10.9 7.1 0 5.8-10.9-1.2-10.9zm32.2-42.4c-9.8 0-8.1 15 1.5 15 9.8 0 8.1-15-1.5-15zm69.6 7.2c-8.7 0-7.2 13.5 1.4 13.5 8.8 0 7.3-13.5-1.4-13.5zm-37.7 226.3q-0.5-0.9-1-1.9-0.9-1.3-2.4-2-0.8-0.7-1.9-0.9-0.8-0.3-1.7-0.3c-0.2-0.2-0.4-0.5-0.7-0.6-0.4-0.2-2.2-0.5-3.1-0.6q0 0 0 0-1.6-0.2-3.1 0.4-0.9 0.5-1.8 1-0.5 0.3-0.8 0.8c-1 0.9-1.3 1.1-2 2.6q0 0 0 0 0 0.1 0 0.1c0.1-0.1-0.6 1.6-0.7 2.3 0 0.8 0 1.6 0 2.3 0 1.6 0.9 3 1.6 4.3q0.1 0.1 0.2 0.2 0 0 0 0.1 0.1 0 0.1 0 0 0.1 0 0.1 0.8 0.8 1.6 1.6c1.4 1.3 2.8 1.6 4.5 2q0.3 0.1 0.6 0.1c0.8 0.1 1.5 0.1 2.3 0.1q0.2 0 0.3-0.1 1.2-0.2 2.3-0.5 0.1 0 0.2-0.1c1.9-0.9 2.5-1.2 3.9-2.8 0.3-0.3 0.5-0.8 0.7-1.1 0.2-0.3 0.6-0.8 0.7-1.2q0.7-1.4 0.6-3 0.2-1.5-0.4-2.9zm-10.8-6.3q0.5 0 1 0c-1.8-0.2-1.7-0.1-1 0zm-114.9-27.3q-0.8-1.9-2.4-3.3-1.6-1.6-3.2-3.2-1.3-1.1-2.8-1.4-1.5-0.5-3-0.3-1.6 0.1-2.9 0.9-1.5 0.6-2.4 1.9-0.6 0.9-1.1 1.8-0.9 2-0.6 4 0.2 1 0.4 2 0.8 2 2.4 3.3l3.3 3.2q1.2 1.1 2.8 1.4 1.4 0.6 3 0.3 1.5-0.1 2.8-0.9 1.5-0.6 2.5-1.9 0.5-0.9 1.1-1.8 0.8-1.9 0.6-4-0.3-1-0.5-2zm7.4-70.1q-0.7-1.4-1.9-2.3-1.2-1.1-2.7-1.4-1.4-0.5-2.9-0.3-0.9 0.3-1.9 0.5-1.9 0.7-3.2 2.3-0.5 0.9-1 1.7-0.8 1.9-0.6 3.8v1.7q0.1 1.5 0.9 2.7 0.6 1.4 1.8 2.3 1.2 1.1 2.7 1.4 1.4 0.5 2.9 0.3 1-0.2 1.9-0.5 1.9-0.7 3.2-2.3 0.5-0.8 1.1-1.7 0.8-1.8 0.6-3.8v-1.6q-0.1-1.5-0.9-2.8zm-83.5-41.3c-10.1 0-8.4 15.5 1.6 15.5 10.1 0 8.4-15.5-1.6-15.5zm65.2-81q-0.6-1.3-1.7-2.2-1.1-1-2.5-1.2-1.3-0.5-2.7-0.3-0.9 0.2-1.8 0.4-1.7 0.7-2.9 2.1-0.5 0.8-1 1.6-0.8 1.7-0.6 3.6v3.2q0.1 1.4 0.9 2.6 0.5 1.3 1.7 2.1 1.1 1 2.5 1.3 1.3 0.5 2.7 0.3 0.8-0.2 1.7-0.5 1.8-0.6 3-2.1 0.5-0.8 1-1.6 0.7-1.7 0.5-3.6v-3.2q-0.1-1.4-0.8-2.5zm95 191.6c-8.9 0-7.3 13.7 1.5 13.7 8.8 0 7.3-13.7-1.5-13.7z"/></svg>