<svg version="1.2" xmlns="http://www.w3.org/2000/svg" viewBox="0 0 209 370" width="209" height="370"><style>.a{fill:#e89f7e}</style><path class="a" d="m79.1 101.7c6.3 5.2 14.3 11.2 23.2 17.5 8.9 6.3 18.6 13.1 28 20.5 12.7 10.1 24.7 21.6 33.7 35.5 9.1 13.9 14.3 29.7 18.2 45.3 3.5 14 5.9 28.2 7.2 42.5 0.2 2.3 0.6 4.6 0.9 6.9 2.2 16.9 3.3 33.9 3.4 50.9 0.1 1.9-0.1 3.7-0.2 5.6-0.1 1.2-1.2 1.4-1.5 0.3-0.4-1.3-0.8-2.6-1-4.1-0.4-3-0.7-6.1-0.9-9.1-1.4-22-3-43.9-5.6-65.7-0.1-0.8-0.1-1.6-0.3-2.3-2.3-9.9-4.3-19.9-6.9-29.7-2.6-9.9-5.9-19.7-11.2-28.2-2.3-4.9-5.1-9.4-8.4-13.6-3.2-4.2-6.8-8.1-10.6-11.8-2.2-2.1-4.2-4.5-6.3-6.6-5.6-5.7-11.4-11.3-18.3-15.7-1.5-0.9-3.2-2.3-4.5-3.5-5.7-5.2-12.3-9.1-18.7-13.3-9.7-6.4-19.2-13.2-28-20.9-4.2-3.6-8-7.4-12.2-10.9-1.1-0.9-2.2-2-3.2-3.2-1.1-1.2-2.1-2.5-3.1-3.7-4.6-5.5-8.6-11.4-12-17.7-0.4-0.8-0.8-1.4-1.1-2.1-1.7-3.6-3-7.2-4.2-10.9-1-3.8-2-7.6-2.5-11.4-0.7-3.9-0.8-7.8-0.8-11.7 0.2-3.9 0.5-7.8 1.4-11.6 0.2-0.8 0.9-1.6 1.3-2 0.3-0.2 0.7 0.2 0.7 0.8q0.1 1.7 0.3 3.4c0.1 1.2 0.2 2.3 0.1 3.5-0.7 13.2 3.1 26.3 9.1 37.9 7 13.3 16.7 25.2 34 39.1zm15.3-16.9c6.2 5.2 14.2 11.2 23.1 17.5 8.9 6.3 18.7 13 28 20.5 12.7 10.1 24.7 21.6 33.8 35.4 9.1 14 14.2 29.8 18.2 45.4 3.5 14 5.9 28.2 7.2 42.5 0.2 2.3 0.6 4.6 0.9 6.9 2.1 16.9 3.2 33.9 3.4 50.9 0 1.9-0.1 3.7-0.3 5.6 0 1.2-1.1 1.4-1.5 0.3-0.3-1.3-0.8-2.6-1-4.1-0.3-3-0.7-6.1-0.9-9.1-1.3-22-3-43.9-5.6-65.7-0.1-0.8-0.1-1.6-0.3-2.3-2.3-9.9-4.2-19.9-6.8-29.8-2.6-9.8-5.9-19.6-11.2-28.2-2.3-4.8-5.2-9.3-8.4-13.5-3.3-4.2-6.9-8.1-10.7-11.8-2.1-2.1-4.1-4.5-6.3-6.6-5.6-5.7-11.4-11.3-18.3-15.7-1.5-0.9-3.1-2.3-4.5-3.5-5.7-5.2-12.2-9.1-18.7-13.3-9.6-6.4-19.1-13.2-28-20.9-4.1-3.6-7.9-7.4-12.1-10.9-1.1-0.9-2.2-2-3.3-3.2-1-1.2-2.1-2.5-3.1-3.7-4.5-5.5-8.6-11.4-11.9-17.8-0.4-0.7-0.9-1.3-1.2-2-1.6-3.6-2.9-7.3-4.1-11-1.1-3.7-2-7.5-2.6-11.4-0.6-3.8-0.7-7.7-0.7-11.6 0.1-3.9 0.5-7.8 1.4-11.6 0.1-0.8 0.8-1.7 1.3-2.1 0.2-0.2 0.6 0.3 0.6 0.8q0.2 1.7 0.3 3.5c0.1 1.1 0.3 2.3 0.2 3.5-0.8 13.2 3.1 26.3 9.1 37.9 7 13.3 16.7 25.2 34 39.1zm-47.5 59.4c6.3 5.3 14.3 11.2 23.2 17.5 8.8 6.4 18.6 13.1 27.9 20.6 12.7 10.1 24.8 21.6 33.8 35.4 9.1 13.9 14.3 29.7 18.2 45.4 3.5 14 5.9 28.2 7.2 42.4 0.2 2.3 0.6 4.6 0.9 6.9 2.2 17 3.2 34 3.4 50.9 0 1.9-0.1 3.8-0.2 5.6-0.1 1.3-1.2 1.5-1.6 0.3-0.3-1.3-0.8-2.6-0.9-4-0.4-3-0.7-6.1-0.9-9.2-1.4-21.9-3-43.8-5.7-65.6-0.1-0.8-0.1-1.6-0.2-2.3-2.3-9.9-4.3-19.9-6.9-29.8-2.6-9.8-5.9-19.6-11.2-28.2-2.3-4.8-5.2-9.4-8.4-13.6-3.2-4.2-6.9-8.1-10.7-11.8-2.1-2-4.1-4.4-6.2-6.6-5.7-5.6-11.4-11.2-18.3-15.6-1.6-1-3.2-2.3-4.5-3.5-5.8-5.2-12.3-9.1-18.8-13.4-9.6-6.3-19.1-13.2-28-20.8-4.1-3.6-7.9-7.4-12.1-10.9-1.1-0.9-2.2-2.1-3.2-3.3-1.1-1.1-2.1-2.4-3.1-3.6-4.6-5.5-8.6-11.5-12-17.8-0.4-0.7-0.8-1.4-1.2-2.1-1.6-3.5-2.9-7.2-4.1-10.9-1.1-3.7-2-7.5-2.5-11.4-0.7-3.8-0.8-7.8-0.8-11.6 0.2-3.9 0.5-7.8 1.4-11.6 0.2-0.9 0.9-1.7 1.3-2.1 0.2-0.2 0.6 0.3 0.7 0.8q0.1 1.7 0.2 3.5c0.1 1.1 0.3 2.3 0.2 3.5-0.7 13.2 3.1 26.2 9.1 37.8 7 13.4 16.7 25.3 34 39.1zm15.2-16.9c6.3 5.3 14.3 11.2 23.2 17.5 8.9 6.4 18.7 13.1 28 20.6 12.7 10 24.7 21.5 33.8 35.4 9.1 13.9 14.2 29.7 18.2 45.4 3.5 14 5.8 28.2 7.2 42.4 0.2 2.3 0.6 4.6 0.9 6.9 2.1 17 3.2 34 3.4 50.9 0 1.9-0.1 3.8-0.3 5.6-0.1 1.3-1.2 1.5-1.5 0.3-0.4-1.3-0.8-2.6-1-4-0.4-3-0.7-6.1-0.9-9.2-1.4-22-3-43.9-5.6-65.6-0.1-0.8-0.1-1.6-0.3-2.3-2.3-9.9-4.2-19.9-6.8-29.8-2.6-9.8-6-19.6-11.2-28.2-2.3-4.8-5.2-9.4-8.4-13.6-3.3-4.2-6.9-8.1-10.7-11.8-2.1-2-4.1-4.4-6.3-6.6-5.6-5.6-11.4-11.2-18.3-15.6-1.5-1-3.1-2.3-4.5-3.5-5.7-5.3-12.2-9.1-18.7-13.4-9.6-6.3-19.1-13.2-28-20.8-4.1-3.6-7.9-7.4-12.1-10.9-1.1-1-2.2-2.1-3.3-3.3-1-1.2-2.1-2.4-3.1-3.6-4.5-5.5-8.6-11.5-12-17.8-0.3-0.7-0.8-1.4-1.1-2.1-1.6-3.5-2.9-7.2-4.1-10.9-1.1-3.7-2.1-7.5-2.6-11.4-0.6-3.8-0.8-7.8-0.8-11.7 0.2-3.8 0.5-7.7 1.4-11.5 0.2-0.9 0.9-1.7 1.4-2.1 0.2-0.2 0.6 0.3 0.6 0.8q0.2 1.7 0.3 3.5c0.1 1.1 0.2 2.3 0.2 3.4-0.8 13.3 3.1 26.3 9.1 37.9 7 13.4 16.7 25.3 33.9 39.1z"/></svg>