<svg version="1.2" xmlns="http://www.w3.org/2000/svg" viewBox="0 0 253 315" width="253" height="315"><style>.a{fill:#62b2ac}</style><path class="a" d="m150.7 45c-1 5.2-1.7 11.2-2.3 17.7-0.6 6.6-1.3 13.7-2.8 21.1-1.5 7.4-3.9 15.1-8.5 22.2-2.2 3.5-5 6.8-8.3 9.6-3.3 2.7-7.1 4.9-11 6.6-10.6 4.4-21.5 5.6-31.8 7.9-10.1 2.3-19.9 6.1-29 11.3-18 10.5-33 26.4-42.4 45.1-4.1 8.3-7.2 17.2-8.9 26.3-1.7 9.1-2.2 18.5-1.6 27.8q0.2 2.2 0.5 4.5 0.4 2.2 0.9 4.5c4.1 21.8 14.9 42.2 30.2 58.2 0.8 0.9 1.7 1.8 2.5 2.6q1.3 1.4 2.5 2.7c1.2 1.2 0.7 2.2-0.7 1.4-1.5-0.9-3.1-1.8-4.7-3-1.6-1.3-3-2.8-4.5-4.2-1.6-1.4-2.9-3-4.3-4.6-19.4-22.5-29.1-53.5-25.1-82.9 0.2-1 0.4-2.1 0.5-3 0.7-6.8 2-13.7 4.4-20.1 1-3.3 2.6-6.4 3.9-9.6 0.8-1.6 1.6-3.1 2.4-4.6l1.2-2.3 1.4-2.2c0.9-1.5 1.8-2.9 2.7-4.4l3-4.2c1-1.4 2.1-2.8 3.1-4.1 1.1-1.3 2.2-2.7 3.3-4 2.3-2.6 4.5-5.2 7-7.6 2.3-2.5 4.9-4.8 7.4-7.1 11.7-8.9 24.5-16.3 38.6-20.6 4-1.3 8.2-1.8 12.3-2.5 5.3-0.9 10.6-1.7 15.7-3 5.1-1.4 10.2-3.4 14.3-6.6 0.9-0.7 1.9-1.5 2.9-2.3 0.9-0.8 2-1.5 2.8-2.3 3.8-3.3 6.5-7.6 8.5-12.2 1.9-4.6 3.1-9.6 4-14.6 1.3-7.4 1.8-15.1 2.5-22.8 0.7-7.7 1.6-15.6 3.6-23.2 1-3.6 2.2-7.1 3.7-10.5q2.4-5.1 5.5-9.9c2.2-3.4 5.9-6.6 9.6-9 8.6-5.4 18.8-7.4 28.5-7 1.1 0 2.2 0 3.3 0.1 5.3 0.7 10.4 2.1 15.3 3.9 4.9 1.9 9.5 4.3 14 6.9 8.8 5.3 16.7 11.7 24.4 18.2 0.9 0.7 1.5 1.8 1.8 2.5 0.1 0.4-0.6 0.5-1.2 0.1-2.7-1.4-5.5-2.6-8.1-4.4-7.2-5.3-14.7-10.3-22.6-14.2-7.9-3.9-16.4-6.6-25-7.2-4.9-0.3-9.9-0.1-14.8 1-2.5 0.5-4.9 1.4-7.2 2.3-2.3 1.1-4.7 2.3-6.8 3.9-2.1 1.6-4.1 3.4-5.9 5.6-1.9 2.1-3.4 4.6-4.8 7.2-2.8 5.4-4.7 11.8-5.9 19z"/></svg>